<?xml version="1.0" encoding="UTF-8"?>
<svg xmlns="http://www.w3.org/2000/svg" width="200" height="400" viewBox="0 0 200 400">
  <defs>
    <linearGradient id="bodyGrad" x1="0" x2="0" y1="0" y2="1">
      <stop offset="0%" stop-color="#36f0ff"/>
      <stop offset="100%" stop-color="#00a7b8"/>
    </linearGradient>
    <linearGradient id="glassGrad" x1="0" x2="0" y1="0" y2="1">
      <stop offset="0%" stop-color="#e8fbff" stop-opacity="0.9"/>
      <stop offset="100%" stop-color="#9ed3df" stop-opacity="0.7"/>
    </linearGradient>
    <filter id="shadow" x="-20%" y="-10%" width="140%" height="120%">
      <feDropShadow dx="0" dy="6" stdDeviation="6" flood-color="#000" flood-opacity="0.35"/>
    </filter>
  </defs>
  <g id="wheels" fill="#1a1a1a">
    <rect x="12" y="60" width="28" height="80" rx="10"/>
    <rect x="160" y="60" width="28" height="80" rx="10"/>
    <rect x="12" y="260" width="28" height="80" rx="10"/>
    <rect x="160" y="260" width="28" height="80" rx="10"/>
  </g>
  <g id="car" filter="url(#shadow)">
    <rect x="34" y="30" width="132" height="340" rx="24" fill="url(#bodyGrad)" stroke="#0d6b72" stroke-width="3"/>
    <!-- aggressive angled accents -->
    <polygon points="40,120 92,70 102,70 58,120" fill="#00eaff" opacity="0.9"/>
    <polygon points="160,140 108,190 98,190 142,140" fill="#00eaff" opacity="0.9"/>
    <!-- glass -->
    <path d="M52,78 h96 a18,18 0 0 1 18,18 v36 a8,8 0 0 1 -8,8 H42 a8,8 0 0 1 -8,-8 v-36 a18,18 0 0 1 18,-18 z" fill="url(#glassGrad)"/>
    <path d="M52,282 h96 a18,18 0 0 0 18,-18 v-36 a8,8 0 0 0 -8,-8 H42 a8,8 0 0 0 -8,8 v36 a18,18 0 0 0 18,18 z" fill="url(#glassGrad)"/>
    <rect x="42" y="40" width="116" height="320" rx="20" fill="#ffffff" opacity="0.06"/>
  </g>
</svg>
