<?xml version="1.0" encoding="UTF-8"?>
<svg xmlns="http://www.w3.org/2000/svg" width="200" height="400" viewBox="0 0 200 400">
  <defs>
    <linearGradient id="bodyGrad" x1="0" x2="0" y1="0" y2="1">
      <stop offset="0%" stop-color="#ffb86b"/>
      <stop offset="100%" stop-color="#ff8f2a"/>
    </linearGradient>
    <linearGradient id="glassGrad" x1="0" x2="0" y1="0" y2="1">
      <stop offset="0%" stop-color="#ffffff" stop-opacity="0.9"/>
      <stop offset="100%" stop-color="#c7d6de" stop-opacity="0.7"/>
    </linearGradient>
    <filter id="shadow" x="-20%" y="-10%" width="140%" height="120%">
      <feDropShadow dx="0" dy="6" stdDeviation="6" flood-color="#000" flood-opacity="0.35"/>
    </filter>
  </defs>
  <g id="wheels" fill="#1a1a1a">
    <rect x="16" y="70" width="24" height="80" rx="10"/>
    <rect x="160" y="70" width="24" height="80" rx="10"/>
    <rect x="16" y="270" width="24" height="80" rx="10"/>
    <rect x="160" y="270" width="24" height="80" rx="10"/>
  </g>
  <g id="car" filter="url(#shadow)">
    <rect x="40" y="30" width="120" height="340" rx="30" fill="url(#bodyGrad)" stroke="#b15c16" stroke-width="3"/>
    <!-- playful dots band -->
    <rect x="52" y="160" width="96" height="40" rx="10" fill="#ffffff" opacity="0.8"/>
    <g fill="#000" opacity="0.2">
      <circle cx="68" cy="180" r="7"/>
      <circle cx="88" cy="180" r="7"/>
      <circle cx="108" cy="180" r="7"/>
      <circle cx="128" cy="180" r="7"/>
    </g>
    <!-- glass -->
    <path d="M56,90 h88 a22,22 0 0 1 22,22 v34 a8,8 0 0 1 -8,8 H42 a8,8 0 0 1 -8,-8 v-34 a22,22 0 0 1 22,-22 z" fill="url(#glassGrad)"/>
    <path d="M56,280 h88 a22,22 0 0 0 22,-22 v-34 a8,8 0 0 0 -8,-8 H42 a8,8 0 0 0 -8,8 v34 a22,22 0 0 0 22,22 z" fill="url(#glassGrad)"/>
    <rect x="46" y="40" width="108" height="320" rx="24" fill="#ffffff" opacity="0.06"/>
  </g>
</svg>
