<?xml version="1.0" encoding="UTF-8"?>
<svg xmlns="http://www.w3.org/2000/svg" width="200" height="400" viewBox="0 0 200 400">
  <defs>
    <linearGradient id="bodyGradY" x1="0" x2="0" y1="0" y2="1">
      <stop offset="0%" stop-color="#ffe27a"/>
      <stop offset="100%" stop-color="#d6a73a"/>
    </linearGradient>
    <linearGradient id="glassGrad" x1="0" x2="0" y1="0" y2="1">
      <stop offset="0%" stop-color="#dff7ff" stop-opacity="0.9"/>
      <stop offset="100%" stop-color="#8fb6c7" stop-opacity="0.7"/>
    </linearGradient>
    <filter id="shadow" x="-20%" y="-10%" width="140%" height="120%">
      <feDropShadow dx="0" dy="6" stdDeviation="6" flood-color="#000" flood-opacity="0.35"/>
    </filter>
  </defs>
  <g id="wheels" fill="#1a1a1a">
    <rect x="12" y="60" width="28" height="80" rx="10"/>
    <rect x="160" y="60" width="28" height="80" rx="10"/>
    <rect x="12" y="260" width="28" height="80" rx="10"/>
    <rect x="160" y="260" width="28" height="80" rx="10"/>
  </g>
  <g id="car" filter="url(#shadow)">
    <rect x="34" y="30" width="132" height="340" rx="28" fill="url(#bodyGradY)" stroke="#8f6e22" stroke-width="3"/>
    <rect x="96" y="30" width="8" height="340" fill="#ffffff" opacity="0.8"/>
    <rect x="84" y="30" width="8" height="340" fill="#ffffff" opacity="0.35"/>
    <path d="M50,80 h100 a20,20 0 0 1 20,20 v40 a8,8 0 0 1 -8,8 H38 a8,8 0 0 1 -8,-8 v-40 a20,20 0 0 1 20,-20 z" fill="url(#glassGrad)"/>
    <path d="M50,280 h100 a20,20 0 0 0 20,-20 v-40 a8,8 0 0 0 -8,-8 H38 a8,8 0 0 0 -8,8 v40 a20,20 0 0 0 20,20 z" fill="url(#glassGrad)"/>
    <rect x="40" y="40" width="120" height="320" rx="24" fill="#ffffff" opacity="0.06"/>
  </g>
</svg>
